<svg data-v-0dd9719b="" version="1.0" xmlns="http://www.w3.org/2000/svg" xmlns:xlink="http://www.w3.org/1999/xlink" width="100%" height="100%" viewBox="46 0 240.000000 250.000000" preserveAspectRatio="xMidYMid meet" color-interpolation-filters="sRGB" style="margin: auto;"> <g data-v-0dd9719b="" fill="#0ca579" class="icon-text-wrapper icon-svg-group iconsvg" transform="translate(72.2249984741211,90.5994873046875)"><g class="iconsvg-imagesvg" transform="translate(0,0)"><g><rect fill="#0ca579" fill-opacity="0" stroke-width="2" x="0" y="0" width="59.99999999999999" height="68.80102742867626" class="image-rect"></rect> <svg x="0" y="0" width="59.99999999999999" height="68.80102742867626" filtersec="colorsb8130389049" class="image-svg-svg primary" style="overflow: visible;"><svg xmlns="http://www.w3.org/2000/svg" viewBox="0 0 65.30999755859375 74.88999938964844"><g><g><path fill="#0ca579" d="M0 49.83l22.62 13.62V32.54L0 49.83z"></path><path fill="#00ea90" d="M34.85 0v29.75L0 49.83V19.62L34.85 0z"></path><path fill="#c1c1c1" d="M65.31 25.07L42.7 11.45v30.9l22.61-17.28z"></path><path fill="#6b6b6b" d="M30.46 74.89V45.15l34.85-20.08v30.21L30.46 74.89z"></path></g></g></svg></svg> <!----></g></g> <g transform="translate(67,3.3035449981689453)"><g data-gra="path-name" fill-rule="" class="tp-name iconsvg-namesvg" transform="translate(0,0)"><g transform="scale(1)"><g><path d="M9.39-19.22Q12.11-19.22 13.99-18.72 15.87-18.22 16.99-16.79 18.12-15.37 18.12-12.71L18.12-12.71Q18.12-11.54 17.76-10.32 17.41-9.09 16.89-8.19 16.37-7.28 15.97-7.01L15.97-7.01Q15.5-6.68 13.89-6.49 12.28-6.31 10.1-6.31L10.1-6.31Q9.33-6.31 7.72-6.37L7.72-6.37 7.72 0 1.68 0 1.68-19.12Q5.2-19.22 9.39-19.22L9.39-19.22ZM11.91-10.6Q12.25-11.04 12.25-12.35L12.25-12.35Q12.25-14.06 11.52-14.76 10.8-15.47 9.02-15.47L9.02-15.47Q8.42-15.47 7.72-15.37L7.72-15.37 7.72-10.27Q8.05-10.23 9.02-10.23L9.02-10.23Q11.61-10.23 11.91-10.6L11.91-10.6ZM20.3 0L20.3-19.12 26.34-19.12 26.34 0 20.3 0ZM35.36-10.33L35.33-7.72 35.33 0 29.72 0 29.72-19.12 35.39-19.12 40.46-11.41Q41.6-9.7 42.2-8.52L42.2-8.52 42.3-8.52 42.3-11.74 42.3-19.12 47.87-19.12 47.87 0 42.17 0 36.97-8.05 35.46-10.33 35.36-10.33ZM64.78-7.48L69.04 0 62.43 0 58.71-7.15Q58.61-7.31 58.19-8.09 57.77-8.86 57.27-9.56L57.27-9.56 57.27 0 51.23 0 51.23-19.12 57.27-19.12 57.27-10.43Q57.84-11.07 58.26-11.83 58.68-12.58 58.74-12.71L58.74-12.71 62.33-19.12 68.71-19.12 64.88-12.71Q64.78-12.58 64.45-12.01 64.11-11.44 63.73-10.95 63.34-10.47 62.9-10.06L62.9-10.06Q63.51-9.49 63.89-8.94 64.28-8.39 64.78-7.48L64.78-7.48ZM83.87-4.56L84.24-0.64Q83-0.1 81.35 0.13 79.71 0.37 78.3 0.37L78.3 0.37Q73.74 0.37 71.16-2.01 68.57-4.39 68.57-9.33L68.57-9.33Q68.57-14.36 71.29-16.86 74.01-19.36 78.94-19.36L78.94-19.36Q81.29-19.36 83.84-18.72L83.84-18.72Q83.84-18.05 83.7-16.72 83.57-15.4 83.43-14.86L83.43-14.86 81.32-14.86Q79.01-14.86 77.68-14.78 76.36-14.69 76.09-14.46L76.09-14.46Q75.58-13.99 75.32-12.56 75.05-11.14 75.05-9.83L75.05-9.83Q75.05-7.55 75.62-6.32 76.19-5.1 77.06-4.7L77.06-4.7Q77.9-4.29 79.85-4.29L79.85-4.29Q81.39-4.29 83.87-4.56L83.87-4.56ZM86.49 0L86.49-19.12 92.53-19.12 92.53 0 86.49 0ZM105.95-14.93L105.95 0 99.91 0 99.91-14.93 94.51-14.93 94.51-19.12 111.35-19.12 111.35-14.93 105.95-14.93ZM130.23-19.12L123.86-6.11 123.86 0 117.82 0 117.82-6.04 111.38-19.12 117.52-19.12 120.07-12.92Q120.47-11.98 120.81-10.94L120.81-10.94 120.87-10.94Q121.24-12.08 121.61-12.98L121.61-12.98 124.13-19.12 130.23-19.12Z" transform="translate(-1.6800000667572021, 19.360000610351562)"></path></g> <!----> <!----> <!----> <!----> <!----> <!----> <g data-gra="path-name-1" fill="#0ca579" transform="translate(0,22.73000144958496)"><g transform="scale(0.9952)"><path d="M5.8-24.69L13.6-24.69 13.6-8.88Q13.6-5.59 13-3.55 12.39-1.52 10.85-0.48 9.31 0.56 6.54 0.56L6.54 0.56Q3.6 0.56 0.35 0L0.35 0 1-4.98Q2.21-4.94 3.77-5.02 5.33-5.11 5.54-5.37L5.54-5.37Q5.8-5.8 5.8-7.45 5.8-9.1 5.8-9.31L5.8-9.31 5.8-24.69ZM33.44 0L32.14-5.41 24.95-5.41 23.65 0 15.68 0 23.65-24.69 33.83-24.69 41.46 0 33.44 0ZM28.68-19.36L28.5-19.36 25.95-10.22 31.1-10.22 28.68-19.36ZM43.67 0L43.67-24.69 51.46-24.69 51.46 0 43.67 0ZM65.8-24.82Q69.31-24.82 71.74-24.17 74.16-23.52 75.61-21.68 77.06-19.84 77.06-16.42L77.06-16.42Q77.06-14.9 76.61-13.32 76.15-11.74 75.48-10.57 74.81-9.4 74.29-9.05L74.29-9.05Q73.69-8.62 71.61-8.38 69.53-8.14 66.71-8.14L66.71-8.14Q65.71-8.14 63.64-8.23L63.64-8.23 63.64 0 55.84 0 55.84-24.69Q60.39-24.82 65.8-24.82L65.8-24.82ZM69.05-13.69Q69.48-14.25 69.48-15.94L69.48-15.94Q69.48-18.15 68.55-19.06 67.62-19.97 65.32-19.97L65.32-19.97Q64.55-19.97 63.64-19.84L63.64-19.84 63.64-13.26Q64.07-13.21 65.32-13.21L65.32-13.21Q68.66-13.21 69.05-13.69L69.05-13.69ZM95.13-24.69L102.93-24.69 102.93-10.87Q102.93-6.58 101.99-4.18 101.06-1.78 98.51-0.65 95.95 0.48 91.06 0.48L91.06 0.48Q87.46 0.48 84.99-0.28 82.52-1.04 81.07-3.16 79.62-5.28 79.62-9.14L79.62-9.14 79.62-24.69 87.42-24.69 87.42-10.79Q87.42-8.49 87.66-7.3 87.89-6.11 88.76-5.48 89.63-4.85 91.4-4.85L91.4-4.85Q92.49-4.85 93.44-5.07 94.39-5.28 94.74-5.72L94.74-5.72Q95.13-6.24 95.13-9.49L95.13-9.49 95.13-24.69ZM127.4-8.14L129.52 0 121.34 0 119.86-6.24Q119.78-6.58 119.58-7.43 119.39-8.27 119.13-8.69 118.87-9.1 118.39-9.23L118.39-9.23Q117.18-9.18 114.84-9.18L114.84-9.18 114.84 0 107.04 0 107.04-24.48Q112.28-24.87 116.83-24.87L116.83-24.87Q120.95-24.87 123.5-24.19 126.06-23.52 127.34-21.9 128.61-20.27 128.61-17.46L128.61-17.46Q128.61-14.82 127.4-13.32 126.19-11.83 123.5-11.52L123.5-11.52 123.5-11.26Q125.02-11.13 126.04-10.29 127.05-9.44 127.4-8.14L127.4-8.14ZM114.84-14.08Q115.23-14.04 116.35-14.04L116.35-14.04Q119.69-14.04 120.25-14.6L120.25-14.6Q120.77-15.12 120.77-17.02L120.77-17.02Q120.77-18.8 119.84-19.45 118.91-20.1 116.79-20.1L116.79-20.1Q116.31-20.1 114.84-20.01L114.84-20.01 114.84-14.08Z" transform="translate(-0.3500000238418579, 24.8700008392334)"></path></g></g></g></g> <g data-gra="path-slogan" fill-rule="" class="tp-slogan iconsvg-slogansvg" fill="#0ca579" transform="translate(5,54.03793716430664)"><rect x="0" height="1" y="3.580000400543213" width="14.125"></rect> <rect height="1" y="3.580000400543213" width="14.125" x="104.42500305175781"></rect> <g transform="translate(17.125,0)"><g transform="scale(1)"><path d="M2.71-7.03L2.71 0L3.72 0L3.72-7.03L6.10-7.03L6.10-7.87L0.34-7.87L0.34-7.03ZM10.13 0.14C10.62 0.14 11.08 0.05 11.49-0.14C11.90-0.34 12.26-0.61 12.56-0.97C12.86-1.32 13.09-1.75 13.25-2.26C13.42-2.77 13.50-3.34 13.50-3.97C13.50-4.60 13.42-5.16 13.25-5.66C13.09-6.16 12.86-6.58 12.56-6.93C12.26-7.28 11.90-7.55 11.49-7.73C11.08-7.92 10.62-8.02 10.13-8.02C9.63-8.02 9.18-7.92 8.77-7.74C8.35-7.56 8.00-7.29 7.70-6.94C7.41-6.59 7.18-6.17 7.01-5.67C6.85-5.17 6.77-4.60 6.77-3.97C6.77-3.34 6.85-2.77 7.01-2.26C7.18-1.75 7.41-1.32 7.70-0.97C8.00-0.61 8.35-0.34 8.77-0.14C9.18 0.05 9.63 0.14 10.13 0.14ZM10.13-0.73C9.78-0.73 9.46-0.81 9.17-0.96C8.89-1.11 8.65-1.33 8.44-1.61C8.24-1.90 8.08-2.24 7.97-2.63C7.86-3.03 7.80-3.48 7.80-3.97C7.80-4.46 7.86-4.90 7.97-5.29C8.08-5.68 8.24-6.02 8.44-6.29C8.65-6.56 8.89-6.77 9.17-6.92C9.46-7.07 9.78-7.14 10.13-7.14C10.48-7.14 10.80-7.07 11.08-6.92C11.37-6.77 11.61-6.56 11.81-6.29C12.02-6.02 12.18-5.68 12.29-5.29C12.40-4.90 12.46-4.46 12.46-3.97C12.46-3.48 12.40-3.03 12.29-2.63C12.18-2.24 12.02-1.90 11.81-1.61C11.61-1.33 11.37-1.11 11.08-0.96C10.80-0.81 10.48-0.73 10.13-0.73ZM15.16-7.87L15.16-3.25C15.16-2.62 15.23-2.09 15.37-1.66C15.52-1.22 15.71-0.87 15.97-0.61C16.22-0.34 16.52-0.15 16.87-0.03C17.21 0.09 17.59 0.14 17.99 0.14C18.39 0.14 18.76 0.09 19.10-0.03C19.45-0.15 19.75-0.34 20.00-0.61C20.25-0.87 20.45-1.22 20.59-1.66C20.74-2.09 20.81-2.62 20.81-3.25L20.81-7.87L19.85-7.87L19.85-3.23C19.85-2.76 19.80-2.36 19.70-2.04C19.61-1.72 19.48-1.46 19.31-1.27C19.14-1.08 18.94-0.94 18.72-0.86C18.50-0.77 18.25-0.73 17.99-0.73C17.73-0.73 17.49-0.77 17.27-0.86C17.04-0.94 16.85-1.08 16.69-1.27C16.52-1.46 16.39-1.72 16.30-2.04C16.20-2.36 16.15-2.76 16.15-3.23L16.15-7.87ZM23.93-4.14L23.93-7.07L25.25-7.07C25.86-7.07 26.34-6.96 26.66-6.76C26.99-6.55 27.16-6.18 27.16-5.66C27.16-5.15 26.99-4.77 26.66-4.52C26.34-4.27 25.86-4.14 25.25-4.14ZM27.25 0L28.38 0L26.39-3.43C26.92-3.57 27.35-3.82 27.67-4.19C27.99-4.56 28.15-5.05 28.15-5.66C28.15-6.07 28.08-6.42 27.95-6.70C27.81-6.98 27.62-7.20 27.38-7.38C27.13-7.56 26.84-7.68 26.50-7.76C26.16-7.83 25.79-7.87 25.39-7.87L22.93-7.87L22.93 0L23.93 0L23.93-3.32L25.36-3.32ZM32.59-2.10C32.59-2.40 32.69-2.68 32.87-2.92C33.06-3.17 33.30-3.40 33.58-3.62C33.86-3.20 34.17-2.79 34.53-2.39C34.89-1.99 35.26-1.62 35.64-1.28C35.41-1.08 35.17-0.93 34.92-0.82C34.67-0.70 34.41-0.65 34.14-0.65C33.92-0.65 33.72-0.68 33.53-0.75C33.35-0.82 33.18-0.92 33.04-1.04C32.90-1.17 32.79-1.33 32.71-1.51C32.63-1.69 32.59-1.88 32.59-2.10ZM33.52-6.17C33.52-6.50 33.60-6.77 33.78-6.98C33.96-7.20 34.19-7.31 34.49-7.31C34.75-7.31 34.94-7.22 35.06-7.05C35.17-6.88 35.23-6.68 35.23-6.44C35.23-6.27 35.20-6.11 35.12-5.96C35.05-5.81 34.95-5.67 34.83-5.54C34.71-5.41 34.56-5.28 34.40-5.15C34.23-5.03 34.06-4.91 33.89-4.79C33.78-5.03 33.69-5.26 33.62-5.50C33.55-5.73 33.52-5.95 33.52-6.17ZM38.11 0.14L38.38-0.67C38.16-0.74 37.93-0.83 37.68-0.96C37.43-1.09 37.17-1.24 36.90-1.43C37.21-1.84 37.48-2.29 37.70-2.76C37.93-3.23 38.12-3.73 38.28-4.25L37.36-4.25C37.24-3.79 37.08-3.37 36.89-2.99C36.71-2.60 36.49-2.25 36.25-1.92C35.88-2.23 35.51-2.58 35.17-2.95C34.82-3.33 34.52-3.72 34.26-4.13C34.48-4.29 34.69-4.45 34.90-4.61C35.11-4.78 35.30-4.95 35.47-5.14C35.64-5.33 35.78-5.53 35.88-5.75C35.98-5.96 36.04-6.20 36.04-6.46C36.04-6.92 35.90-7.30 35.63-7.58C35.36-7.87 34.98-8.02 34.49-8.02C34.22-8.02 33.97-7.97 33.74-7.87C33.52-7.78 33.33-7.64 33.17-7.48C33.01-7.31 32.88-7.11 32.80-6.89C32.71-6.66 32.66-6.42 32.66-6.16C32.66-5.87 32.71-5.57 32.80-5.26C32.89-4.95 33.02-4.64 33.18-4.31C32.98-4.17 32.79-4.03 32.60-3.87C32.41-3.71 32.24-3.54 32.10-3.36C31.96-3.18 31.84-2.98 31.76-2.76C31.67-2.54 31.63-2.30 31.63-2.04C31.63-1.72 31.69-1.43 31.81-1.16C31.92-0.89 32.09-0.66 32.30-0.47C32.51-0.28 32.76-0.13 33.05-0.02C33.35 0.09 33.67 0.14 34.03 0.14C34.50 0.14 34.91 0.06 35.29-0.10C35.66-0.27 36.00-0.48 36.30-0.76C36.62-0.53 36.93-0.35 37.24-0.20C37.54-0.05 37.83 0.06 38.11 0.14ZM43.69-7.03L43.69 0L44.70 0L44.70-7.03L47.08-7.03L47.08-7.87L41.32-7.87L41.32-7.03ZM49.49-4.14L49.49-7.07L50.81-7.07C51.42-7.07 51.90-6.96 52.22-6.76C52.55-6.55 52.72-6.18 52.72-5.66C52.72-5.15 52.55-4.77 52.22-4.52C51.90-4.27 51.42-4.14 50.81-4.14ZM52.81 0L53.94 0L51.95-3.43C52.48-3.57 52.91-3.82 53.23-4.19C53.55-4.56 53.71-5.05 53.71-5.66C53.71-6.07 53.64-6.42 53.51-6.70C53.37-6.98 53.18-7.20 52.94-7.38C52.69-7.56 52.40-7.68 52.06-7.76C51.72-7.83 51.35-7.87 50.95-7.87L48.49-7.87L48.49 0L49.49 0L49.49-3.32L50.92-3.32ZM58.69-3.20L56.33-3.20L56.70-4.40C56.84-4.84 56.98-5.28 57.11-5.72C57.24-6.15 57.36-6.60 57.48-7.06L57.53-7.06C57.66-6.60 57.78-6.15 57.91-5.72C58.04-5.28 58.18-4.84 58.32-4.40ZM58.94-2.40L59.69 0L60.76 0L58.09-7.87L56.96-7.87L54.30 0L55.32 0L56.08-2.40ZM60.62-7.87L63.14 0L64.31 0L66.80-7.87L65.78-7.87L64.52-3.62C64.39-3.15 64.26-2.72 64.15-2.32C64.04-1.92 63.91-1.48 63.77-1.02L63.72-1.02C63.57-1.48 63.44-1.92 63.33-2.32C63.22-2.72 63.10-3.15 62.95-3.62L61.69-7.87ZM67.88-7.87L67.88 0L72.54 0L72.54-0.85L68.88-0.85L68.88-3.71L71.87-3.71L71.87-4.56L68.88-4.56L68.88-7.03L72.42-7.03L72.42-7.87ZM74.21-7.87L74.21 0L78.65 0L78.65-0.85L75.20-0.85L75.20-7.87ZM79.80-1.72L79.20-1.02C79.54-0.66 79.95-0.38 80.42-0.17C80.90 0.04 81.41 0.14 81.96 0.14C82.38 0.14 82.75 0.09 83.08-0.03C83.40-0.15 83.68-0.31 83.92-0.51C84.15-0.71 84.33-0.95 84.45-1.22C84.57-1.50 84.64-1.79 84.64-2.10C84.64-2.39 84.59-2.64 84.51-2.86C84.43-3.08 84.31-3.27 84.17-3.44C84.02-3.60 83.85-3.75 83.65-3.87C83.45-3.99 83.24-4.10 83.02-4.20L81.90-4.68C81.74-4.74 81.58-4.81 81.43-4.89C81.28-4.97 81.14-5.05 81.01-5.15C80.88-5.25 80.78-5.37 80.71-5.50C80.63-5.63 80.59-5.80 80.59-5.99C80.59-6.35 80.73-6.63 80.99-6.83C81.26-7.04 81.62-7.14 82.06-7.14C82.42-7.14 82.75-7.07 83.05-6.94C83.34-6.81 83.60-6.63 83.84-6.40L84.38-7.04C84.10-7.33 83.76-7.57 83.36-7.75C82.96-7.93 82.53-8.02 82.06-8.02C81.70-8.02 81.37-7.96 81.07-7.86C80.77-7.76 80.51-7.61 80.29-7.42C80.07-7.23 79.89-7.01 79.77-6.76C79.65-6.50 79.58-6.22 79.58-5.93C79.58-5.64 79.63-5.39 79.73-5.17C79.82-4.95 79.95-4.76 80.10-4.60C80.25-4.44 80.42-4.30 80.62-4.19C80.81-4.08 81.00-3.98 81.18-3.90L82.31-3.41C82.49-3.32 82.66-3.24 82.82-3.16C82.98-3.08 83.12-2.99 83.24-2.89C83.35-2.79 83.45-2.67 83.51-2.53C83.58-2.39 83.62-2.22 83.62-2.02C83.62-1.63 83.47-1.32 83.18-1.09C82.90-0.85 82.49-0.73 81.97-0.73C81.56-0.73 81.17-0.82 80.79-1.00C80.41-1.18 80.08-1.42 79.80-1.72Z" transform="translate(-0.336, 8.016)"></path></g></g></g></g></g><defs v-gra="od"></defs></svg>